<svg id="Layer_1" data-name="Layer 1" xmlns="http://www.w3.org/2000/svg" viewBox="0 0 443.93 217"><defs><style>.cls-1{fill:#231f20;}</style></defs><path class="cls-1" d="M128.05,26.85c-.9-2.3-1.9-3.3-5.2-3.3h-6.41v54.1c0,2.3,1.3,3.9,3.31,3.9v1.9H100.84v-1.9c1.8,0,3.4-1.4,3.4-3.9V23.55h-6.7c-2.9,0-4.2.9-4.9,3.3l-2.1-.5,2.4-13.5a15.08,15.08,0,0,0,4.5.7h26.21a7.36,7.36,0,0,0,3.8-.8l2.6,13.6Z"/><path class="cls-1" d="M147.35,83.45v-1.8c1.6,0,2-1,2-1.7,0-.3-.2-3.5-.5-5.2a13.65,13.65,0,0,1-9.21,0c-.3,1.7-.6,4.7-.6,5.2,0,.9.5,1.7,2,1.7v1.8h-14.6v-1.8a2.4,2.4,0,0,0,2.4-2.2l7.8-47c.1-.8.2-1.5.2-1.7a1.39,1.39,0,0,0-1.5-1.4v-1.8h18.81v1.8a1.29,1.29,0,0,0-1.4,1.3,13.66,13.66,0,0,0,.2,1.9l7.6,46.8c.3,1.7,1.1,2.3,2.5,2.3v1.8Zm-3.2-44.9H144l-3.2,27.3a7,7,0,0,0,3.5.8,8.16,8.16,0,0,0,3.41-.8Z"/><path class="cls-1" d="M192.84,84.25a12.81,12.81,0,0,0-4.9-.8h-22.6v-1.8a2.89,2.89,0,0,0,2.9-3.1V32.35c0-2.1-1.1-3-2.9-3v-1.8H182v1.8a2.81,2.81,0,0,0-2.9,3v42.4H189c2.1,0,3.3-1.3,4.2-3.3l2,.6Z"/><path class="cls-1" d="M225,84.05a9.4,9.4,0,0,0-3.8-.6h-23.5v-1.8a2.89,2.89,0,0,0,2.9-3.1V32.25a2.73,2.73,0,0,0-2.9-2.9v-1.8h22.8a9.27,9.27,0,0,0,3.9-.6l2.2,11.3-1.8.6c-.6-1.9-1.6-2.9-3.3-2.9h-10.1v12.5h8.3c1.7,0,3.3-.9,3.3-2.6h1.8v13.9H223c0-1.7-1.2-2.8-3.3-2.8h-8.2V75h9.9c2,0,3-1.3,3.9-3.2l1.8.6Z"/><path class="cls-1" d="M240.74,84.65c-2.5,0-4.9-1-6.9-1a9,9,0,0,0-2.8.4l-1.7-12.9,2.1-.5c1,3.5,2.8,5.3,8,5.3,3.6,0,6-2.4,6-6.3,0-3.5-1.9-6.6-6.2-11.3-6.5-7.1-9.6-11.7-9.6-18,0-8.3,5.2-14,14.3-14,2.8,0,4.7.8,6.5.8a8.31,8.31,0,0,0,2.8-.6l1.7,11.7-2,.6c-1-2.5-3.5-3.9-7.5-3.9a5,5,0,0,0-4.9,5.2,8.66,8.66,0,0,0,2.4,5.9c2,2.4,3.8,4.6,5.7,6.9,4.6,5.4,7.5,9.9,7.5,16.3C256.14,79.05,250.14,84.65,240.74,84.65Z"/><path class="cls-1" d="M289.34,85.15c-11.3,0-16.4-9.9-16.4-30.9,0-18.5,5.3-28.5,16.5-28.5,10.9,0,16.4,9.9,16.4,28.4C305.84,75.65,300.64,85.15,289.34,85.15Zm0-50.8c-3.3,0-5.2,5.7-5.2,19.9,0,16.9,1.8,22.3,5.3,22.3,3.2,0,5.2-4.9,5.2-22.3C294.64,40,292.94,34.35,289.34,34.35Z"/><path class="cls-1" d="M336.64,38.85c-.6-2.1-1.3-2.9-4.1-2.9h-9.3v13.5h8.2c2,0,3.3-1.2,3.3-2.8h1.8v13.8h-1.8c0-1.7-1.3-2.6-3.3-2.6h-8.1v20.7a3,3,0,0,0,3.2,3.1v1.8h-17v-1.8a2.83,2.83,0,0,0,2.9-3.1V32.25a2.68,2.68,0,0,0-2.9-2.9v-1.8h22.2a12.3,12.3,0,0,0,4.5-.6l2.2,11.3Z"/><path class="cls-1" d="M63.06,208.45v-3.8c3.4,0,4.8-2,4.8-4.2,0-.8-.8-10.4-1.4-14.2-2.4,1.2-7.2,2.2-11.4,2.2s-9.6-1-12.2-2.2c-.6,3.8-1.8,13-1.8,14.2,0,2.4,1.4,4.2,4.8,4.2v3.8h-33v-3.8c2.8,0,4.8-2.2,5.4-5.6L36.66,80.86a29.84,29.84,0,0,0,.4-4.2c0-2.2-1.2-4.2-3.6-4.2v-3.8h43.8v3.8a3.73,3.73,0,0,0-3.8,4,43,43,0,0,0,.4,4.6l18,117.59c.8,4.8,3,6,6,6v3.8ZM55.46,93.26h-1.4l-8.4,72c2,1.2,6.2,2.2,9.6,2.2a18.38,18.38,0,0,0,8.8-2.2Z"/><path class="cls-1" d="M168.86,106.26v92.39c0,4,1.4,6.2,4,6.2v3.6h-24.4v-29.2l-19-40h-.4v59.4a5.94,5.94,0,0,0,6,6.2v3.6h-32.2v-3.6c3.6,0,5.8-2.8,5.8-6.2V106.26a5.61,5.61,0,0,0-5.8-6V96.65h27c-.2,2,.8,5.41,1.8,7.41l16.6,36.59h.2V106.26a5.77,5.77,0,0,0-6-6V96.65h32.2v3.61A5.72,5.72,0,0,0,168.86,106.26Z"/><path class="cls-1" d="M236.06,209.65c-1.6-.8-4.4-1.2-7.6-1.2h-47v-3.6c3.4,0,5.8-2.6,5.8-6.2V106.06a5.46,5.46,0,0,0-5.8-5.8V96.65h45.6c4.4,0,6.4-.59,7.8-1.19l4.4,22.6-3.6,1.19c-1.2-3.79-3.2-5.79-6.6-5.79h-20.2v25h16.6c3.4,0,6.6-1.8,6.6-5.2h3.6v27.8h-3.6c0-3.4-2.4-5.6-6.6-5.6h-16.4v36h19.8c4,0,6-2.6,7.8-6.4l3.6,1.2Z"/><path class="cls-1" d="M290.06,208.45c-2.8-9.6-7.8-32.4-9-44.4h-7v34.6c0,3.6,2,6.2,5.8,6.2v3.6h-33.4v-3.6c3.4,0,5.8-2.6,5.8-6.2V106.06c0-3.41-1.6-5.8-5.8-5.8V96.65c7-.59,20-1.19,30.6-1.19,21.6,0,36.2,9.39,36.2,33.6,0,15.39-6,24.19-13.2,28.79a315.19,315.19,0,0,0,10.6,42c1,3,3.2,5,6.6,5v3.6Zm-12.6-96a24.33,24.33,0,0,0-3.4.19v35.8a21.8,21.8,0,0,0,3.4.2c7,0,13.4-4.59,13.4-18.4C290.86,116.65,283.86,112.46,277.46,112.46Z"/><path class="cls-1" d="M321.86,208.45v-3.6c3.4,0,5.8-2.6,5.8-6.2V106.06c0-3.6-2-5.8-5.8-5.8V96.65h33.6v3.61c-4,0-6,2.2-6,5.8v92.59c0,3.8,2.2,6.2,6,6.2v3.6Z"/><path class="cls-1" d="M401.85,208.45v-3.6c3.21,0,4-2,4-3.4a102.86,102.86,0,0,0-1-10.4,27.22,27.22,0,0,1-18.39,0c-.6,3.4-1.2,9.4-1.2,10.4,0,1.8,1,3.4,4,3.4v3.6h-29.2v-3.6a4.79,4.79,0,0,0,4.8-4.4l15.6-94c.2-1.61.4-3,.4-3.4a2.77,2.77,0,0,0-3-2.8V96.65h37.6v3.61a2.58,2.58,0,0,0-2.81,2.59,25.69,25.69,0,0,0,.41,3.8l15.2,93.6c.59,3.4,2.19,4.6,5,4.6v3.6Zm-6.39-89.8h-.2l-6.4,54.6a13.92,13.92,0,0,0,7,1.6,16.23,16.23,0,0,0,6.81-1.6Z"/></svg>